<?xml version="1.0" encoding="UTF-8"?>
<!DOCTYPE svg PUBLIC "-//W3C//DTD SVG 1.1//EN" "http://www.w3.org/Graphics/SVG/1.1/DTD/svg11.dtd">
<svg xmlns="http://www.w3.org/2000/svg" version="1.1" width="500px" height="232px" style="shape-rendering:geometricPrecision; text-rendering:geometricPrecision; image-rendering:optimizeQuality; fill-rule:evenodd; clip-rule:evenodd" xmlns:xlink="http://www.w3.org/1999/xlink">
<g><path style="opacity:1" fill="#eae9ed" d="M 317.5,58.5 C 316.833,57.8333 316.167,57.1667 315.5,56.5C 312.82,51.1401 310.153,45.8068 307.5,40.5C 306.473,38.816 305.473,37.1494 304.5,35.5C 304.263,31.278 304.596,27.1114 305.5,23C 306.697,21.4801 308.197,20.3134 310,19.5C 318.506,33.1744 326.506,47.1744 334,61.5C 336.005,63.8004 338.172,63.8004 340.5,61.5C 340.833,61.8333 341.167,62.1667 341.5,62.5C 334.309,67.2635 326.642,71.2635 318.5,74.5C 317.167,73.8333 317.167,73.1667 318.5,72.5C 320.167,71.6667 321.833,70.8333 323.5,70C 321.347,66.1918 319.347,62.3585 317.5,58.5 Z"/></g>
<g><path style="opacity:1" fill="#e5e5e9" d="M 197.5,38.5 C 195.708,38.634 194.042,38.3007 192.5,37.5C 191.504,37.5858 190.671,37.2524 190,36.5C 188.817,27.8438 192.317,25.0105 200.5,28C 202.478,30.4973 202.978,33.3307 202,36.5C 200.67,37.5822 199.17,38.2488 197.5,38.5 Z"/></g>
<g><path style="opacity:1" fill="#e6e6ea" d="M 236.5,39.5 C 235.209,39.2627 234.209,39.596 233.5,40.5C 231.324,38.7012 228.99,38.3679 226.5,39.5C 218.919,52.9978 211.085,66.3311 203,79.5C 202.409,80.4835 202.743,81.1501 204,81.5C 205.766,82.2335 207.599,82.5668 209.5,82.5C 209.167,83.1667 208.833,83.8333 208.5,84.5C 200.371,82.8465 192.371,80.6798 184.5,78C 186.807,77.6909 188.974,76.8576 191,75.5C 198.707,61.9181 206.54,48.4181 214.5,35C 213.167,34.3333 211.833,33.6667 210.5,33C 211.025,32.3076 211.692,31.8076 212.5,31.5C 220.808,33.6026 228.808,36.2693 236.5,39.5 Z"/></g>
<g><path style="opacity:0.549" fill="#7b7a8e" d="M 278.5,36.5 C 280.948,35.5269 283.615,35.1936 286.5,35.5C 286.795,37.7354 286.461,39.7354 285.5,41.5C 285.5,39.8333 285.5,38.1667 285.5,36.5C 283.167,36.5 280.833,36.5 278.5,36.5 Z"/></g>
<g><path style="opacity:0.997" fill="#dfdee4" d="M 275.5,36.5 C 276.5,36.5 277.5,36.5 278.5,36.5C 280.833,36.5 283.167,36.5 285.5,36.5C 285.5,38.1667 285.5,39.8333 285.5,41.5C 285.263,44.2116 285.263,46.7116 285.5,49C 284.975,49.6924 284.308,50.1924 283.5,50.5C 282.685,45.5258 280.351,41.5258 276.5,38.5C 276.167,37.8333 275.833,37.1667 275.5,36.5 Z"/></g>
<g><path style="opacity:0.993" fill="#9b9baa" d="M 263.5,37.5 C 267.298,36.5166 271.298,36.1832 275.5,36.5C 275.833,37.1667 276.167,37.8333 276.5,38.5C 273.813,38.3359 271.146,38.5026 268.5,39C 267.131,40.7189 266.131,42.5522 265.5,44.5C 266.01,41.6122 265.344,39.2789 263.5,37.5 Z"/></g>
<g><path style="opacity:1" fill="#e4e4e8" d="M 191.5,40.5 C 192.694,41.2719 193.694,42.2719 194.5,43.5C 187.229,50.2701 180.062,57.2701 173,64.5C 172.409,65.4835 172.743,66.1501 174,66.5C 176.806,65.4303 179.473,64.097 182,62.5C 182.684,63.7839 182.517,64.9505 181.5,66C 174.482,71.1306 167.982,70.6306 162,64.5C 161.333,62.5 161.333,60.5 162,58.5C 168.5,52 175,45.5 181.5,39C 178.772,38.3611 178.272,37.1944 180,35.5C 183.786,37.3103 187.619,38.977 191.5,40.5 Z"/></g>
<g><path style="opacity:0.012" fill="#333251" d="M 192.5,37.5 C 194.042,38.3007 195.708,38.634 197.5,38.5C 196.391,39.29 195.058,39.79 193.5,40C 195.495,40.9236 195.828,42.0903 194.5,43.5C 193.694,42.2719 192.694,41.2719 191.5,40.5C 192.11,39.609 192.443,38.609 192.5,37.5 Z"/></g>
<g><path style="opacity:1" fill="#e7e7eb" d="M 263.5,37.5 C 265.344,39.2789 266.01,41.6122 265.5,44.5C 264.664,50.1655 264.164,55.8322 264,61.5C 269.247,60.9281 272.747,58.0948 274.5,53C 274.833,52.8333 275.167,52.6667 275.5,52.5C 275.833,53.3333 276.167,54.1667 276.5,55C 275.853,60.7468 274.52,66.2468 272.5,71.5C 271.686,68.5815 270.686,65.7481 269.5,63C 266.637,62.035 264.304,62.7017 262.5,65C 260.972,72.139 259.639,79.3057 258.5,86.5C 257.957,86.56 257.624,86.8933 257.5,87.5C 259.631,88.1687 261.631,88.8354 263.5,89.5C 258.547,90.3292 253.547,90.6625 248.5,90.5C 246.821,90.7148 245.821,90.0481 245.5,88.5C 248.038,72.4788 250.704,56.4788 253.5,40.5C 252.022,40.762 250.689,40.4287 249.5,39.5C 254.02,37.8864 258.686,37.2197 263.5,37.5 Z"/></g>
<g><path style="opacity:1" fill="#e7e7eb" d="M 236.5,39.5 C 241.313,42.6237 243.646,47.1237 243.5,53C 241.562,71.4326 231.562,82.266 213.5,85.5C 211.742,85.4084 210.076,85.075 208.5,84.5C 208.833,83.8333 209.167,83.1667 209.5,82.5C 217.562,78.2691 223.396,71.9357 227,63.5C 229.349,58.8022 231.682,54.1356 234,49.5C 234.736,46.408 234.569,43.408 233.5,40.5C 234.209,39.596 235.209,39.2627 236.5,39.5 Z"/></g>
<g><path style="opacity:0.647" fill="#a0a0af" d="M 304.5,35.5 C 305.473,37.1494 306.473,38.816 307.5,40.5C 305.803,42.3052 304.97,44.6385 305,47.5C 304.333,52.1667 304.333,56.8333 305,61.5C 308.324,59.4207 311.824,57.7541 315.5,56.5C 316.167,57.1667 316.833,57.8333 317.5,58.5C 313.088,59.8693 308.754,61.536 304.5,63.5C 303.174,68.1043 302.674,72.7709 303,77.5C 304.509,78.0897 306.009,78.7564 307.5,79.5C 304.081,81.6265 300.581,83.6265 297,85.5C 296.5,85 296,84.5 295.5,84C 297.81,82.3626 299.31,80.196 300,77.5C 301.301,63.3282 302.801,49.3282 304.5,35.5 Z"/></g>
<g><path style="opacity:0.257" fill="#262141" d="M 157.5,73.5 C 156.957,73.56 156.624,73.8933 156.5,74.5C 157.63,75.6223 158.297,76.9557 158.5,78.5C 159.242,80.4258 160.242,82.2591 161.5,84C 160.906,84.4643 160.239,84.631 159.5,84.5C 157.193,83.3466 154.86,82.1799 152.5,81C 151.177,80.1841 150.511,79.0174 150.5,77.5C 152.27,76.236 153.937,74.736 155.5,73C 156.437,72.3083 157.103,72.475 157.5,73.5 Z"/></g>
<g><path style="opacity:0.358" fill="#272242" d="M 349.5,78.5 C 346.212,81.8244 342.212,83.8244 337.5,84.5C 338.529,82.4832 339.529,80.4832 340.5,78.5C 341.167,76.8333 341.833,75.1667 342.5,73.5C 344.845,74.4087 347.178,76.0754 349.5,78.5 Z"/></g>
<g><path style="opacity:1" fill="#c5c4cd" d="M 263.5,89.5 C 261.631,88.8354 259.631,88.1687 257.5,87.5C 257.624,86.8933 257.957,86.56 258.5,86.5C 266.009,89.0536 272.176,87.0536 277,80.5C 278.487,77.519 279.821,74.519 281,71.5C 281.87,72.1079 282.37,72.9412 282.5,74C 281.614,78.1513 280.78,82.3179 280,86.5C 279.5,87 279,87.5 278.5,88C 273.536,88.9122 268.536,89.4122 263.5,89.5 Z"/></g>
<g><path style="opacity:0.339" fill="#302676" d="M 157.5,73.5 C 159.657,75.4121 161.991,77.0787 164.5,78.5C 165.626,79.8583 165.626,81.1916 164.5,82.5C 162.21,81.5329 160.21,80.1996 158.5,78.5C 158.297,76.9557 157.63,75.6223 156.5,74.5C 156.624,73.8933 156.957,73.56 157.5,73.5 Z"/></g>
<g><path style="opacity:0.987" fill="#633537" d="M 340.5,78.5 C 339.529,80.4832 338.529,82.4832 337.5,84.5C 331.956,89.4416 325.623,93.1083 318.5,95.5C 318.338,93.4727 318.505,91.4727 319,89.5C 322.047,88.4384 324.88,87.1051 327.5,85.5C 332.553,84.4348 336.886,82.1014 340.5,78.5 Z"/></g>
<g><path style="opacity:1" fill="#513481" d="M 342.5,73.5 C 341.833,75.1667 341.167,76.8333 340.5,78.5C 336.886,82.1014 332.553,84.4348 327.5,85.5C 326.244,85.5386 325.244,85.0386 324.5,84C 327.412,82.768 330.078,81.268 332.5,79.5C 335.825,77.5033 339.159,75.5033 342.5,73.5 Z"/></g>
<g><path style="opacity:1" fill="#60343e" d="M 158.5,78.5 C 160.21,80.1996 162.21,81.5329 164.5,82.5C 165.626,81.1916 165.626,79.8583 164.5,78.5C 172.796,80.9931 180.796,83.9931 188.5,87.5C 186.5,87.1667 184.5,86.8333 182.5,86.5C 182.5,87.5 182.5,88.5 182.5,89.5C 177.314,88.4379 172.314,86.7712 167.5,84.5C 166.571,85.6888 166.238,87.0222 166.5,88.5C 165.518,87.8592 164.518,87.1925 163.5,86.5C 162.306,88.5156 162.306,90.5156 163.5,92.5C 160.11,91.0563 158.777,88.3896 159.5,84.5C 160.239,84.631 160.906,84.4643 161.5,84C 160.242,82.2591 159.242,80.4258 158.5,78.5 Z"/></g>
<g><path style="opacity:0.995" fill="#6b5f45" d="M 188.5,87.5 C 190.153,87.6596 191.486,88.3263 192.5,89.5C 194.942,90.8994 197.276,92.566 199.5,94.5C 199.833,94.3333 200.167,94.1667 200.5,94C 199.158,91.985 198.658,89.8183 199,87.5C 200.317,91.8367 202.817,95.1701 206.5,97.5C 206.833,98.1667 207.167,98.8333 207.5,99.5C 205.302,99.4088 204.969,100.075 206.5,101.5C 205.504,101.414 204.671,101.748 204,102.5C 197.784,96.4805 190.618,92.1472 182.5,89.5C 182.5,88.5 182.5,87.5 182.5,86.5C 184.5,86.8333 186.5,87.1667 188.5,87.5 Z"/></g>
<g><path style="opacity:1" fill="#5b3e59" d="M 332.5,79.5 C 330.078,81.268 327.412,82.768 324.5,84C 325.244,85.0386 326.244,85.5386 327.5,85.5C 324.88,87.1051 322.047,88.4384 319,89.5C 318.505,91.4727 318.338,93.4727 318.5,95.5C 317.391,95.5569 316.391,95.8902 315.5,96.5C 315.662,94.4727 315.495,92.4727 315,90.5C 312.095,91.7025 309.262,93.0359 306.5,94.5C 306.843,92.5168 306.176,91.1834 304.5,90.5C 313.295,85.6752 322.628,82.0085 332.5,79.5 Z"/></g>
<g><path style="opacity:0.475" fill="#323f64" d="M 200.5,86.5 C 203.294,89.7567 205.294,93.4233 206.5,97.5C 202.817,95.1701 200.317,91.8367 199,87.5C 198.658,89.8183 199.158,91.985 200.5,94C 200.167,94.1667 199.833,94.3333 199.5,94.5C 197.276,92.566 194.942,90.8994 192.5,89.5C 194.167,89.5 195.833,89.5 197.5,89.5C 197.183,86.4655 198.183,85.4655 200.5,86.5 Z"/></g>
<g><path style="opacity:1" fill="#926e31" d="M 349.5,78.5 C 349.153,82.8737 347.82,86.8737 345.5,90.5C 344.833,90.5 344.5,90.8333 344.5,91.5C 343.833,91.5 343.5,91.8333 343.5,92.5C 343.167,92.5 342.833,92.5 342.5,92.5C 335.449,97.9428 327.615,101.943 319,104.5C 317.462,102.671 317.962,101.171 320.5,100C 318.512,99.8195 316.512,99.9862 314.5,100.5C 314.433,99.0413 314.766,97.7079 315.5,96.5C 316.391,95.8902 317.391,95.5569 318.5,95.5C 325.623,93.1083 331.956,89.4416 337.5,84.5C 342.212,83.8244 346.212,81.8244 349.5,78.5 Z"/></g>
<g><path style="opacity:0.996" fill="#64535c" d="M 150.5,77.5 C 150.511,79.0174 151.177,80.1841 152.5,81C 154.86,82.1799 157.193,83.3466 159.5,84.5C 158.777,88.3896 160.11,91.0563 163.5,92.5C 166.833,94.1667 170.167,95.8333 173.5,97.5C 176.984,98.6567 180.317,99.99 183.5,101.5C 183.5,102.5 183.5,103.5 183.5,104.5C 182.5,104.5 181.5,104.5 180.5,104.5C 178.708,104.634 177.042,104.301 175.5,103.5C 170.554,101.694 165.888,99.3606 161.5,96.5C 158.032,95.2289 155.032,93.2289 152.5,90.5C 151.889,87.005 150.889,83.6716 149.5,80.5C 149.52,79.2739 149.853,78.2739 150.5,77.5 Z"/></g>
<g><path style="opacity:1" fill="#872935" d="M 166.5,88.5 C 168.695,90.4244 171.028,92.0911 173.5,93.5C 173.5,94.8333 173.5,96.1667 173.5,97.5C 170.167,95.8333 166.833,94.1667 163.5,92.5C 162.306,90.5156 162.306,88.5156 163.5,86.5C 164.518,87.1925 165.518,87.8592 166.5,88.5 Z"/></g>
<g><path style="opacity:0.31" fill="#542c5d" d="M 200.5,86.5 C 201.239,86.369 201.906,86.5357 202.5,87C 205.719,90.5518 208.552,94.3851 211,98.5C 212.878,99.0527 214.378,100.053 215.5,101.5C 212.67,101.037 210.003,100.371 207.5,99.5C 207.167,98.8333 206.833,98.1667 206.5,97.5C 205.294,93.4233 203.294,89.7567 200.5,86.5 Z"/></g>
<g><path style="opacity:0.78" fill="#838396" d="M 245.5,88.5 C 245.821,90.0481 246.821,90.7148 248.5,90.5C 245.976,91.8003 243.309,91.8003 240.5,90.5C 242.139,89.6781 243.805,89.0114 245.5,88.5 Z"/></g>
<g><path style="opacity:0.792" fill="#337249" d="M 298.5,86.5 C 296.518,89.8103 294.185,92.8103 291.5,95.5C 291.5,94.8333 291.5,94.1667 291.5,93.5C 292.855,90.1447 295.189,87.8114 298.5,86.5 Z"/></g>
<g><path style="opacity:1" fill="#316769" d="M 182.5,89.5 C 190.618,92.1472 197.784,96.4805 204,102.5C 204.671,101.748 205.504,101.414 206.5,101.5C 207.476,102.815 208.476,104.148 209.5,105.5C 209.145,106.522 208.478,107.189 207.5,107.5C 205.422,104.949 202.756,103.116 199.5,102C 190.803,99.1613 182.137,96.328 173.5,93.5C 171.028,92.0911 168.695,90.4244 166.5,88.5C 166.238,87.0222 166.571,85.6888 167.5,84.5C 172.314,86.7712 177.314,88.4379 182.5,89.5 Z"/></g>
<g><path style="opacity:0.557" fill="#6b2f96" d="M 298.5,86.5 C 299.281,89.6979 298.447,92.6979 296,95.5C 294.758,96.8721 293.258,97.8721 291.5,98.5C 290.913,97.7666 290.913,96.7666 291.5,95.5C 294.185,92.8103 296.518,89.8103 298.5,86.5 Z"/></g>
<g><path style="opacity:0.978" fill="#5c3587" d="M 315.5,96.5 C 312.167,97.5 308.833,98.5 305.5,99.5C 301.838,100.832 298.172,102.165 294.5,103.5C 297.776,99.5293 301.776,96.5293 306.5,94.5C 309.262,93.0359 312.095,91.7025 315,90.5C 315.495,92.4727 315.662,94.4727 315.5,96.5 Z"/></g>
<g><path style="opacity:0.959" fill="#6e593f" d="M 344.5,99.5 C 344.649,98.448 344.483,97.448 344,96.5C 335.159,104.727 324.659,108.727 312.5,108.5C 312.389,107.883 312.056,107.383 311.5,107C 313.004,105.663 314.004,103.996 314.5,102C 311.843,101.825 309.176,101.992 306.5,102.5C 305.596,101.791 305.263,100.791 305.5,99.5C 308.833,98.5 312.167,97.5 315.5,96.5C 314.766,97.7079 314.433,99.0413 314.5,100.5C 316.512,99.9862 318.512,99.8195 320.5,100C 317.962,101.171 317.462,102.671 319,104.5C 327.615,101.943 335.449,97.9428 342.5,92.5C 342.833,93.8333 343.167,93.8333 343.5,92.5C 344.167,92.5 344.5,92.1667 344.5,91.5C 345.167,91.5 345.5,91.1667 345.5,90.5C 347.106,89.2197 348.106,89.7197 348.5,92C 347.527,94.7844 346.194,97.2844 344.5,99.5 Z"/></g>
<g><path style="opacity:1" fill="#549475" d="M 152.5,90.5 C 155.032,93.2289 158.032,95.2289 161.5,96.5C 161.5,98.1667 161.5,99.8333 161.5,101.5C 157.518,99.1831 154.185,96.1831 151.5,92.5C 151.328,91.5084 151.662,90.8417 152.5,90.5 Z"/></g>
<g><path style="opacity:0.706" fill="#444f59" d="M 298.5,86.5 C 299.077,85.2267 299.743,85.2267 300.5,86.5C 301.246,87.7362 301.579,89.0695 301.5,90.5C 302.5,90.5 303.5,90.5 304.5,90.5C 300.833,92.8333 297.833,95.8333 295.5,99.5C 295.44,98.9569 295.107,98.6236 294.5,98.5C 289.014,101.551 283.348,104.217 277.5,106.5C 277.44,105.957 277.107,105.624 276.5,105.5C 273.207,105.976 270.207,106.976 267.5,108.5C 266.662,108.158 266.328,107.492 266.5,106.5C 276.647,105.594 284.98,101.26 291.5,93.5C 291.5,94.1667 291.5,94.8333 291.5,95.5C 290.913,96.7666 290.913,97.7666 291.5,98.5C 293.258,97.8721 294.758,96.8721 296,95.5C 298.447,92.6979 299.281,89.6979 298.5,86.5 Z"/></g>
<g><path style="opacity:1" fill="#837f31" d="M 344.5,99.5 C 342.5,103.5 339.5,106.5 335.5,108.5C 333.597,108.796 331.93,109.463 330.5,110.5C 328.007,111.774 325.341,112.44 322.5,112.5C 318.167,112.5 313.833,112.5 309.5,112.5C 309.5,111.5 309.5,110.5 309.5,109.5C 310.791,109.737 311.791,109.404 312.5,108.5C 324.659,108.727 335.159,104.727 344,96.5C 344.483,97.448 344.649,98.448 344.5,99.5 Z"/></g>
<g><path style="opacity:1" fill="#954831" d="M 173.5,93.5 C 182.137,96.328 190.803,99.1613 199.5,102C 202.756,103.116 205.422,104.949 207.5,107.5C 199.605,105.12 191.605,103.12 183.5,101.5C 180.317,99.99 176.984,98.6567 173.5,97.5C 173.5,96.1667 173.5,94.8333 173.5,93.5 Z"/></g>
<g><path style="opacity:0.017" fill="#2c3258" d="M 263.5,99.5 C 261.589,100.075 259.922,101.075 258.5,102.5C 258.414,101.504 258.748,100.671 259.5,100C 258.552,99.5172 257.552,99.3505 256.5,99.5C 258.556,98.7839 260.723,98.1172 263,97.5C 263.464,98.0944 263.631,98.7611 263.5,99.5 Z"/></g>
<g><path style="opacity:0.761" fill="#323d68" d="M 252.5,99.5 C 248.154,99.3343 243.821,99.501 239.5,100C 240.705,101.376 242.038,102.542 243.5,103.5C 244.833,104.167 245.833,105.167 246.5,106.5C 245.833,106.5 245.167,106.5 244.5,106.5C 241.805,106.067 239.638,104.734 238,102.5C 237.601,102.728 237.435,103.062 237.5,103.5C 236.535,104.721 236.702,106.054 238,107.5C 240.183,109.907 242.35,112.24 244.5,114.5C 243.749,115.573 242.749,115.74 241.5,115C 241.026,113.271 240.026,112.105 238.5,111.5C 238.565,111.062 238.399,110.728 238,110.5C 237.292,111.381 236.458,112.047 235.5,112.5C 235.167,112.5 234.833,112.5 234.5,112.5C 236.092,108.54 235.592,104.873 233,101.5C 232.817,104.365 232.317,107.031 231.5,109.5C 228.704,107.661 225.704,105.994 222.5,104.5C 225.127,105.092 227.794,105.425 230.5,105.5C 231.291,102.583 231.291,99.7499 230.5,97C 237.923,97.7886 245.256,98.6219 252.5,99.5 Z"/></g>
<g><path style="opacity:0.196" fill="#4b3295" d="M 263.5,99.5 C 263.833,99.5 264.167,99.5 264.5,99.5C 263.89,100.391 263.557,101.391 263.5,102.5C 261.549,103.716 260.049,105.382 259,107.5C 257.964,105.701 257.797,104.034 258.5,102.5C 259.922,101.075 261.589,100.075 263.5,99.5 Z"/></g>
<g><path style="opacity:0.039" fill="#402e6b" d="M 267.5,102.5 C 266.833,102.833 266.167,103.167 265.5,103.5C 265.421,102.07 265.754,100.736 266.5,99.5C 266.03,98.537 265.363,98.537 264.5,99.5C 264.694,97.0882 266.027,96.0882 268.5,96.5C 268.167,98.5 267.833,100.5 267.5,102.5 Z"/></g>
<g><path style="opacity:1" fill="#899738" d="M 161.5,96.5 C 165.888,99.3606 170.554,101.694 175.5,103.5C 175.5,104.5 175.5,105.5 175.5,106.5C 173.194,106.007 170.861,105.674 168.5,105.5C 166.004,104.42 163.67,103.086 161.5,101.5C 161.5,99.8333 161.5,98.1667 161.5,96.5 Z"/></g>
<g><path style="opacity:1" fill="#5f753e" d="M 207.5,99.5 C 210.003,100.371 212.67,101.037 215.5,101.5C 216.492,101.328 217.158,101.662 217.5,102.5C 215.007,102.131 214.34,102.797 215.5,104.5C 214.167,105.5 214.167,106.5 215.5,107.5C 218.999,109.75 222.665,111.75 226.5,113.5C 228.573,114.3 230.24,115.633 231.5,117.5C 231.158,118.338 230.492,118.672 229.5,118.5C 226.165,115.161 222.165,112.828 217.5,111.5C 216.152,110.399 214.652,109.399 213,108.5C 212.536,109.094 212.369,109.761 212.5,110.5C 211.167,109.833 209.833,109.167 208.5,108.5C 198.961,107.667 189.628,106.333 180.5,104.5C 181.5,104.5 182.5,104.5 183.5,104.5C 183.5,103.5 183.5,102.5 183.5,101.5C 191.605,103.12 199.605,105.12 207.5,107.5C 208.478,107.189 209.145,106.522 209.5,105.5C 208.476,104.148 207.476,102.815 206.5,101.5C 204.969,100.075 205.302,99.4088 207.5,99.5 Z"/></g>
<g><path style="opacity:0.169" fill="#292a3c" d="M 217.5,102.5 C 219.553,102.402 221.22,103.069 222.5,104.5C 220.447,104.598 218.78,103.931 217.5,102.5 Z"/></g>
<g><path style="opacity:0.518" fill="#683c8c" d="M 252.5,99.5 C 253.833,99.5 255.167,99.5 256.5,99.5C 257.552,99.3505 258.552,99.5172 259.5,100C 258.748,100.671 258.414,101.504 258.5,102.5C 257.504,102.414 256.671,102.748 256,103.5C 255.577,102.044 254.744,101.544 253.5,102C 254.222,103.751 255.222,105.251 256.5,106.5C 255.833,106.833 255.167,107.167 254.5,107.5C 253.791,106.596 252.791,106.263 251.5,106.5C 253.135,103.765 252.469,101.765 249.5,100.5C 248.281,101.263 247.281,102.263 246.5,103.5C 245.004,99.6646 244.004,99.6646 243.5,103.5C 242.038,102.542 240.705,101.376 239.5,100C 243.821,99.501 248.154,99.3343 252.5,99.5 Z"/></g>
<g><path style="opacity:0.005" fill="#1f1f40" d="M 267.5,102.5 C 268.289,102.783 268.956,103.283 269.5,104C 268.184,104.528 267.517,104.028 267.5,102.5 Z"/></g>
<g><path style="opacity:0.98" fill="#52434d" d="M 151.5,92.5 C 154.185,96.1831 157.518,99.1831 161.5,101.5C 163.67,103.086 166.004,104.42 168.5,105.5C 168.286,107.144 168.62,108.644 169.5,110C 167.189,110.236 165.189,111.069 163.5,112.5C 163.539,111.417 163.873,110.417 164.5,109.5C 158.295,105.292 153.962,99.6249 151.5,92.5 Z"/></g>
<g><path style="opacity:0.709" fill="#3d2b9f" d="M 234.5,112.5 C 233.552,114.672 233.885,116.672 235.5,118.5C 235.265,119.097 234.765,119.43 234,119.5C 232.989,118.944 232.156,118.278 231.5,117.5C 231.5,116.833 231.5,116.167 231.5,115.5C 231.5,113.5 231.5,111.5 231.5,109.5C 232.317,107.031 232.817,104.365 233,101.5C 235.592,104.873 236.092,108.54 234.5,112.5 Z"/></g>
<g><path style="opacity:0.698" fill="#646a4c" d="M 251.5,106.5 C 249.833,105.167 248.167,105.167 246.5,106.5C 245.833,105.167 244.833,104.167 243.5,103.5C 244.004,99.6646 245.004,99.6646 246.5,103.5C 247.281,102.263 248.281,101.263 249.5,100.5C 252.469,101.765 253.135,103.765 251.5,106.5 Z"/></g>
<g><path style="opacity:0.706" fill="#5d4a63" d="M 258.5,102.5 C 257.797,104.034 257.964,105.701 259,107.5C 260.049,105.382 261.549,103.716 263.5,102.5C 262.949,105.267 261.616,107.6 259.5,109.5C 259.624,110.107 259.957,110.44 260.5,110.5C 260.5,110.833 260.5,111.167 260.5,111.5C 258.824,112.183 258.157,113.517 258.5,115.5C 256.901,115.232 255.568,115.566 254.5,116.5C 253.075,114.969 252.409,115.302 252.5,117.5C 251.833,116.833 251.167,116.167 250.5,115.5C 250.776,112.281 252.109,109.615 254.5,107.5C 255.167,107.167 255.833,106.833 256.5,106.5C 255.222,105.251 254.222,103.751 253.5,102C 254.744,101.544 255.577,102.044 256,103.5C 256.671,102.748 257.504,102.414 258.5,102.5 Z"/></g>
<g><path style="opacity:0.945" fill="#92583c" d="M 265.5,103.5 C 264.568,106.365 262.902,108.698 260.5,110.5C 259.957,110.44 259.624,110.107 259.5,109.5C 261.616,107.6 262.949,105.267 263.5,102.5C 263.557,101.391 263.89,100.391 264.5,99.5C 265.363,98.537 266.03,98.537 266.5,99.5C 265.754,100.736 265.421,102.07 265.5,103.5 Z"/></g>
<g><path style="opacity:0.976" fill="#75426b" d="M 295.5,99.5 C 290.099,104.621 283.932,108.621 277,111.5C 276.617,110.944 276.117,110.611 275.5,110.5C 275.158,109.662 274.492,109.328 273.5,109.5C 274.795,108.512 276.128,107.512 277.5,106.5C 283.348,104.217 289.014,101.551 294.5,98.5C 295.107,98.6236 295.44,98.9569 295.5,99.5 Z"/></g>
<g><path style="opacity:0.659" fill="#4a5b6e" d="M 215.5,104.5 C 218.157,104.935 220.491,105.935 222.5,107.5C 221.833,107.833 221.167,108.167 220.5,108.5C 218.883,107.962 217.216,107.629 215.5,107.5C 214.167,106.5 214.167,105.5 215.5,104.5 Z"/></g>
<g><path style="opacity:0.209" fill="#4c2d96" d="M 265.5,103.5 C 265.263,104.791 265.596,105.791 266.5,106.5C 266.328,107.492 266.662,108.158 267.5,108.5C 267.5,109.167 267.5,109.833 267.5,110.5C 267.5,112.833 267.5,115.167 267.5,117.5C 266.5,117.5 265.5,117.5 264.5,117.5C 266.087,115.381 265.754,113.714 263.5,112.5C 261.802,114.497 261.468,116.497 262.5,118.5C 262.306,122.005 261.306,122.338 259.5,119.5C 258.469,118.62 257.802,119.12 257.5,121C 258.148,122.44 258.481,123.94 258.5,125.5C 257.791,126.404 256.791,126.737 255.5,126.5C 255.663,124.143 255.497,121.81 255,119.5C 254.292,118.619 253.458,117.953 252.5,117.5C 252.409,115.302 253.075,114.969 254.5,116.5C 258.695,117.997 260.695,116.331 260.5,111.5C 260.5,111.167 260.5,110.833 260.5,110.5C 262.902,108.698 264.568,106.365 265.5,103.5 Z"/></g>
<g><path style="opacity:1" fill="#3e992c" d="M 175.5,103.5 C 177.042,104.301 178.708,104.634 180.5,104.5C 189.628,106.333 198.961,107.667 208.5,108.5C 199.975,109.759 191.308,109.759 182.5,108.5C 180.167,107.833 177.833,107.167 175.5,106.5C 175.5,105.5 175.5,104.5 175.5,103.5 Z"/></g>
<g><path style="opacity:0.844" fill="#4a9432" d="M 217.5,102.5 C 218.78,103.931 220.447,104.598 222.5,104.5C 225.704,105.994 228.704,107.661 231.5,109.5C 231.5,111.5 231.5,113.5 231.5,115.5C 229.146,112.149 226.146,109.482 222.5,107.5C 220.491,105.935 218.157,104.935 215.5,104.5C 214.34,102.797 215.007,102.131 217.5,102.5 Z"/></g>
<g><path style="opacity:0.92" fill="#3e288b" d="M 251.5,106.5 C 252.791,106.263 253.791,106.596 254.5,107.5C 252.109,109.615 250.776,112.281 250.5,115.5C 248.265,112.709 246.265,109.709 244.5,106.5C 245.167,106.5 245.833,106.5 246.5,106.5C 248.167,105.167 249.833,105.167 251.5,106.5 Z"/></g>
<g><path style="opacity:1" fill="#6f3842" d="M 312.5,108.5 C 311.791,109.404 310.791,109.737 309.5,109.5C 306.833,109.5 304.167,109.5 301.5,109.5C 301.414,108.504 301.748,107.671 302.5,107C 304.134,106.506 305.801,106.34 307.5,106.5C 307.567,105.041 307.234,103.708 306.5,102.5C 309.176,101.992 311.843,101.825 314.5,102C 314.004,103.996 313.004,105.663 311.5,107C 312.056,107.383 312.389,107.883 312.5,108.5 Z"/></g>
<g><path style="opacity:0.948" fill="#9b852d" d="M 277.5,106.5 C 276.128,107.512 274.795,108.512 273.5,109.5C 273.5,109.833 273.5,110.167 273.5,110.5C 273.167,110.5 272.833,110.5 272.5,110.5C 271.206,111.29 270.039,112.29 269,113.5C 268.768,112.263 268.268,111.263 267.5,110.5C 267.5,109.833 267.5,109.167 267.5,108.5C 270.207,106.976 273.207,105.976 276.5,105.5C 277.107,105.624 277.44,105.957 277.5,106.5 Z"/></g>
<g><path style="opacity:1" fill="#4e315f" d="M 305.5,99.5 C 305.263,100.791 305.596,101.791 306.5,102.5C 307.234,103.708 307.567,105.041 307.5,106.5C 305.801,106.34 304.134,106.506 302.5,107C 301.748,107.671 301.414,108.504 301.5,109.5C 299.167,109.5 296.833,109.5 294.5,109.5C 292.801,109.66 291.134,109.494 289.5,109C 291.402,107.27 293.069,105.437 294.5,103.5C 298.172,102.165 301.838,100.832 305.5,99.5 Z"/></g>
<g><path style="opacity:1" fill="#978821" d="M 182.5,108.5 C 191.308,109.759 199.975,109.759 208.5,108.5C 209.833,109.167 211.167,109.833 212.5,110.5C 215.186,111.988 214.853,112.655 211.5,112.5C 209.393,111.532 207.059,111.198 204.5,111.5C 199.819,111.669 195.152,112.002 190.5,112.5C 187.5,112.5 184.5,112.5 181.5,112.5C 181.232,110.901 181.566,109.568 182.5,108.5 Z"/></g>
<g><path style="opacity:0.408" fill="#6d5d49" d="M 244.5,106.5 C 246.265,109.709 248.265,112.709 250.5,115.5C 250.5,116.167 250.5,116.833 250.5,117.5C 247.125,119.59 245.959,122.59 247,126.5C 251.152,128.492 252.985,127.159 252.5,122.5C 253.302,123.952 253.802,125.618 254,127.5C 254.383,126.944 254.883,126.611 255.5,126.5C 256.791,126.737 257.791,126.404 258.5,125.5C 259.552,125.351 260.552,125.517 261.5,126C 258.911,127.197 256.244,128.197 253.5,129C 254.448,129.483 255.448,129.649 256.5,129.5C 254.538,131.017 252.205,131.684 249.5,131.5C 246.795,131.684 244.462,131.017 242.5,129.5C 246.449,129.307 246.449,128.807 242.5,128C 243.448,127.517 244.448,127.351 245.5,127.5C 245.5,124.5 245.5,121.5 245.5,118.5C 246.627,117.878 247.627,117.045 248.5,116C 244.356,112.259 240.689,108.093 237.5,103.5C 237.435,103.062 237.601,102.728 238,102.5C 239.638,104.734 241.805,106.067 244.5,106.5 Z"/></g>
<g><path style="opacity:1" fill="#636736" d="M 294.5,109.5 C 296.833,109.5 299.167,109.5 301.5,109.5C 304.167,109.5 306.833,109.5 309.5,109.5C 309.5,110.5 309.5,111.5 309.5,112.5C 313.833,112.5 318.167,112.5 322.5,112.5C 318.702,113.483 314.702,113.817 310.5,113.5C 310.365,115.554 311.032,117.221 312.5,118.5C 308.53,118.016 304.864,116.683 301.5,114.5C 301.196,113.85 300.863,113.183 300.5,112.5C 298.116,111.989 296.116,110.989 294.5,109.5 Z"/></g>
<g><path style="opacity:1" fill="#8a7754" d="M 168.5,105.5 C 170.861,105.674 173.194,106.007 175.5,106.5C 177.833,107.167 180.167,107.833 182.5,108.5C 181.566,109.568 181.232,110.901 181.5,112.5C 184.5,112.5 187.5,112.5 190.5,112.5C 188.735,113.461 186.735,113.795 184.5,113.5C 184.67,114.822 184.337,115.989 183.5,117C 179.49,117.357 175.49,117.19 171.5,116.5C 168.059,115.903 164.725,115.237 161.5,114.5C 161.833,113.5 162.5,112.833 163.5,112.5C 165.189,111.069 167.189,110.236 169.5,110C 168.62,108.644 168.286,107.144 168.5,105.5 Z"/></g>
<g><path style="opacity:0.925" fill="#854447" d="M 215.5,107.5 C 217.216,107.629 218.883,107.962 220.5,108.5C 222.869,109.69 224.869,111.357 226.5,113.5C 222.665,111.75 218.999,109.75 215.5,107.5 Z"/></g>
<g><path style="opacity:0.424" fill="#54418d" d="M 222.5,107.5 C 226.146,109.482 229.146,112.149 231.5,115.5C 231.5,116.167 231.5,116.833 231.5,117.5C 230.24,115.633 228.573,114.3 226.5,113.5C 224.869,111.357 222.869,109.69 220.5,108.5C 221.167,108.167 221.833,107.833 222.5,107.5 Z"/></g>
<g><path style="opacity:1" fill="#379940" d="M 330.5,110.5 C 333.272,110.595 335.272,111.929 336.5,114.5C 328.475,115.973 320.475,117.307 312.5,118.5C 311.032,117.221 310.365,115.554 310.5,113.5C 314.702,113.817 318.702,113.483 322.5,112.5C 325.341,112.44 328.007,111.774 330.5,110.5 Z"/></g>
<g><path style="opacity:0.788" fill="#472f98" d="M 217.5,111.5 C 222.165,112.828 226.165,115.161 229.5,118.5C 228.167,118.167 226.833,117.833 225.5,117.5C 224.71,116.599 223.71,115.932 222.5,115.5C 221.833,115.5 221.167,115.5 220.5,115.5C 220.158,114.662 219.492,114.328 218.5,114.5C 218.047,113.542 217.381,112.708 216.5,112C 216.728,111.601 217.062,111.435 217.5,111.5 Z"/></g>
<g><path style="opacity:0.943" fill="#588956" d="M 260.5,111.5 C 260.695,116.331 258.695,117.997 254.5,116.5C 255.568,115.566 256.901,115.232 258.5,115.5C 258.157,113.517 258.824,112.183 260.5,111.5 Z"/></g>
<g><path style="opacity:1" fill="#5e534b" d="M 304.5,90.5 C 306.176,91.1834 306.843,92.5168 306.5,94.5C 301.776,96.5293 297.776,99.5293 294.5,103.5C 293.069,105.437 291.402,107.27 289.5,109C 291.134,109.494 292.801,109.66 294.5,109.5C 296.116,110.989 298.116,111.989 300.5,112.5C 300.863,113.183 301.196,113.85 301.5,114.5C 299.254,113.545 296.921,112.878 294.5,112.5C 289.112,113.763 283.779,114.763 278.5,115.5C 277.25,115.423 276.417,114.756 276,113.5C 273.594,115.087 271.428,116.753 269.5,118.5C 268.508,118.672 267.842,118.338 267.5,117.5C 267.5,115.167 267.5,112.833 267.5,110.5C 268.268,111.263 268.768,112.263 269,113.5C 270.039,112.29 271.206,111.29 272.5,110.5C 272.833,111.833 273.167,111.833 273.5,110.5C 274.167,110.5 274.833,110.5 275.5,110.5C 276.117,110.611 276.617,110.944 277,111.5C 283.932,108.621 290.099,104.621 295.5,99.5C 297.833,95.8333 300.833,92.8333 304.5,90.5 Z"/></g>
<g><path style="opacity:1" fill="#80515d" d="M 204.5,111.5 C 203.5,112.167 202.5,112.833 201.5,113.5C 196.823,115.174 192.156,116.84 187.5,118.5C 183.833,118.5 180.167,118.5 176.5,118.5C 176.281,119.675 176.614,120.675 177.5,121.5C 181.276,121.77 184.61,122.77 187.5,124.5C 186.833,125.167 186.167,125.833 185.5,126.5C 180.778,126.731 176.111,127.398 171.5,128.5C 170.584,128.457 169.917,128.124 169.5,127.5C 171.033,125.645 172.7,123.812 174.5,122C 173.029,120.417 172.029,118.583 171.5,116.5C 175.49,117.19 179.49,117.357 183.5,117C 184.337,115.989 184.67,114.822 184.5,113.5C 186.735,113.795 188.735,113.461 190.5,112.5C 195.152,112.002 199.819,111.669 204.5,111.5 Z"/></g>
<g><path style="opacity:1" fill="#5c437e" d="M 217.5,111.5 C 217.062,111.435 216.728,111.601 216.5,112C 217.381,112.708 218.047,113.542 218.5,114.5C 216.5,114.5 214.5,114.5 212.5,114.5C 209.031,114.547 205.698,115.213 202.5,116.5C 203.058,115.21 204.058,114.377 205.5,114C 207.586,113.685 209.586,113.185 211.5,112.5C 214.853,112.655 215.186,111.988 212.5,110.5C 212.369,109.761 212.536,109.094 213,108.5C 214.652,109.399 216.152,110.399 217.5,111.5 Z"/></g>
<g><path style="opacity:1" fill="#94912a" d="M 220.5,115.5 C 221.167,115.5 221.833,115.5 222.5,115.5C 217.48,115.953 212.814,117.619 208.5,120.5C 207.35,118.733 208.017,117.567 210.5,117C 213.726,115.801 217.059,115.301 220.5,115.5 Z"/></g>
<g><path style="opacity:1" fill="#8e603c" d="M 264.5,117.5 C 264.158,118.338 263.492,118.672 262.5,118.5C 261.468,116.497 261.802,114.497 263.5,112.5C 265.754,113.714 266.087,115.381 264.5,117.5 Z"/></g>
<g><path style="opacity:0.967" fill="#5e2b46" d="M 161.5,114.5 C 164.725,115.237 168.059,115.903 171.5,116.5C 172.029,118.583 173.029,120.417 174.5,122C 172.7,123.812 171.033,125.645 169.5,127.5C 169.877,125.742 170.544,124.075 171.5,122.5C 167.298,120.905 163.632,118.572 160.5,115.5C 160.624,114.893 160.957,114.56 161.5,114.5 Z"/></g>
<g><path style="opacity:1" fill="#4f476e" d="M 278.5,115.5 C 281.279,115.279 283.946,115.612 286.5,116.5C 285.167,117.167 283.833,117.833 282.5,118.5C 280.218,117.61 277.885,117.444 275.5,118C 278.806,118.986 281.806,120.486 284.5,122.5C 284.672,123.492 284.338,124.158 283.5,124.5C 281.754,122.748 279.754,121.415 277.5,120.5C 275.162,118.96 272.495,118.294 269.5,118.5C 271.428,116.753 273.594,115.087 276,113.5C 276.417,114.756 277.25,115.423 278.5,115.5 Z"/></g>
<g><path style="opacity:0.655" fill="#374e7a" d="M 335.5,108.5 C 334.488,110.1 334.988,111.434 337,112.5C 337.92,115.308 337.087,117.475 334.5,119C 332.212,119.822 329.878,120.489 327.5,121C 326.829,121.986 326.829,123.153 327.5,124.5C 326.711,124.217 326.044,123.717 325.5,123C 319.769,122.79 314.103,122.124 308.5,121C 303.945,118.275 299.278,115.775 294.5,113.5C 294.5,113.167 294.5,112.833 294.5,112.5C 296.921,112.878 299.254,113.545 301.5,114.5C 304.864,116.683 308.53,118.016 312.5,118.5C 320.475,117.307 328.475,115.973 336.5,114.5C 335.272,111.929 333.272,110.595 330.5,110.5C 331.93,109.463 333.597,108.796 335.5,108.5 Z"/></g>
<g><path style="opacity:1" fill="#2d8d43" d="M 201.5,113.5 C 198.15,116.845 194.15,119.179 189.5,120.5C 188.287,120.253 187.62,119.586 187.5,118.5C 192.156,116.84 196.823,115.174 201.5,113.5 Z"/></g>
<g><path style="opacity:1" fill="#47339a" d="M 237.5,103.5 C 240.689,108.093 244.356,112.259 248.5,116C 247.627,117.045 246.627,117.878 245.5,118.5C 244.448,118.351 243.448,118.517 242.5,119C 242.012,121.176 241.012,123.009 239.5,124.5C 238.394,122.716 238.394,120.882 239.5,119C 237.77,117.005 236.437,114.838 235.5,112.5C 236.458,112.047 237.292,111.381 238,110.5C 238.399,110.728 238.565,111.062 238.5,111.5C 238.164,116 240.164,117.833 244.5,117C 245.774,116.023 245.774,115.189 244.5,114.5C 242.35,112.24 240.183,109.907 238,107.5C 236.702,106.054 236.535,104.721 237.5,103.5 Z"/></g>
<g><path style="opacity:0.91" fill="#488571" d="M 238.5,111.5 C 240.026,112.105 241.026,113.271 241.5,115C 242.749,115.74 243.749,115.573 244.5,114.5C 245.774,115.189 245.774,116.023 244.5,117C 240.164,117.833 238.164,116 238.5,111.5 Z"/></g>
<g><path style="opacity:0.886" fill="#483883" d="M 231.5,117.5 C 232.156,118.278 232.989,118.944 234,119.5C 234.765,119.43 235.265,119.097 235.5,118.5C 236.404,119.209 236.737,120.209 236.5,121.5C 235.325,121.281 234.325,121.614 233.5,122.5C 234.5,123.833 235.5,125.167 236.5,126.5C 235.347,127.687 235.347,128.687 236.5,129.5C 237.302,132.574 238.302,135.574 239.5,138.5C 237.012,135.534 235.012,132.201 233.5,128.5C 233.167,127.833 232.833,127.167 232.5,126.5C 232.5,124.833 232.5,123.167 232.5,121.5C 231.694,120.272 230.694,119.272 229.5,118.5C 230.492,118.672 231.158,118.338 231.5,117.5 Z"/></g>
<g><path style="opacity:1" fill="#465384" d="M 250.5,117.5 C 251.441,119.05 252.107,120.716 252.5,122.5C 252.985,127.159 251.152,128.492 247,126.5C 245.959,122.59 247.125,119.59 250.5,117.5 Z"/></g>
<g><path style="opacity:1" fill="#3c9251" d="M 250.5,115.5 C 251.167,116.167 251.833,116.833 252.5,117.5C 253.458,117.953 254.292,118.619 255,119.5C 255.497,121.81 255.663,124.143 255.5,126.5C 254.883,126.611 254.383,126.944 254,127.5C 253.802,125.618 253.302,123.952 252.5,122.5C 252.107,120.716 251.441,119.05 250.5,117.5C 250.5,116.833 250.5,116.167 250.5,115.5 Z"/></g>
<g><path style="opacity:0.978" fill="#505b51" d="M 269.5,118.5 C 272.495,118.294 275.162,118.96 277.5,120.5C 276.494,120.938 276.494,121.604 277.5,122.5C 276.662,122.842 276.328,123.508 276.5,124.5C 275.518,123.859 274.518,123.193 273.5,122.5C 272.893,122.624 272.56,122.957 272.5,123.5C 271.508,123.328 270.842,123.662 270.5,124.5C 267.075,124.367 266.742,125.033 269.5,126.5C 268.5,126.5 267.5,126.5 266.5,126.5C 266.5,126.167 266.5,125.833 266.5,125.5C 267.363,124.06 267.363,122.726 266.5,121.5C 267.34,120.265 268.34,119.265 269.5,118.5 Z"/></g>
<g><path style="opacity:0.998" fill="#32368d" d="M 286.5,116.5 C 292.383,118.047 296.383,121.714 298.5,127.5C 300.912,134.265 305.578,137.932 312.5,138.5C 309.566,139.639 306.9,141.306 304.5,143.5C 300.188,135.552 295.355,127.886 290,120.5C 289.517,121.448 289.351,122.448 289.5,123.5C 287.445,121.445 285.112,119.779 282.5,118.5C 283.833,117.833 285.167,117.167 286.5,116.5 Z"/></g>
<g><path style="opacity:1" fill="#253d8e" d="M 230.5,121.5 C 226.981,121.259 224.315,122.593 222.5,125.5C 220.797,126.66 220.131,125.993 220.5,123.5C 221.058,122.21 222.058,121.377 223.5,121C 226.039,120.204 228.372,120.371 230.5,121.5 Z"/></g>
<g><path style="opacity:1" fill="#6f633b" d="M 248.5,120.5 C 250.344,121.204 250.844,122.537 250,124.5C 248.812,123.437 248.312,122.103 248.5,120.5 Z"/></g>
<g><path style="opacity:1" fill="#616752" d="M 204.5,111.5 C 207.059,111.198 209.393,111.532 211.5,112.5C 209.586,113.185 207.586,113.685 205.5,114C 204.058,114.377 203.058,115.21 202.5,116.5C 198.746,119.597 194.746,122.263 190.5,124.5C 189.5,124.5 188.5,124.5 187.5,124.5C 184.61,122.77 181.276,121.77 177.5,121.5C 176.614,120.675 176.281,119.675 176.5,118.5C 180.167,118.5 183.833,118.5 187.5,118.5C 187.62,119.586 188.287,120.253 189.5,120.5C 194.15,119.179 198.15,116.845 201.5,113.5C 202.5,112.833 203.5,112.167 204.5,111.5 Z"/></g>
<g><path style="opacity:1" fill="#6d632f" d="M 218.5,124.5 C 218.5,124.833 218.5,125.167 218.5,125.5C 218.167,125.5 217.833,125.5 217.5,125.5C 217.778,123.654 217.111,122.32 215.5,121.5C 213.812,122.521 212.479,123.855 211.5,125.5C 210.553,122.38 211.887,120.38 215.5,119.5C 215.56,120.043 215.893,120.376 216.5,120.5C 219.029,119.04 221.696,118.54 224.5,119C 220.874,119.278 218.874,121.112 218.5,124.5 Z"/></g>
<g><path style="opacity:1" fill="#5d8438" d="M 225.5,117.5 C 226.833,117.833 228.167,118.167 229.5,118.5C 230.694,119.272 231.694,120.272 232.5,121.5C 231.833,121.5 231.167,121.5 230.5,121.5C 228.372,120.371 226.039,120.204 223.5,121C 222.058,121.377 221.058,122.21 220.5,123.5C 219.833,123.833 219.167,124.167 218.5,124.5C 218.874,121.112 220.874,119.278 224.5,119C 221.696,118.54 219.029,119.04 216.5,120.5C 215.893,120.376 215.56,120.043 215.5,119.5C 218.507,117.825 221.84,117.159 225.5,117.5 Z"/></g>
<g><path style="opacity:0.9" fill="#503a76" d="M 264.5,117.5 C 265.5,117.5 266.5,117.5 267.5,117.5C 267.842,118.338 268.508,118.672 269.5,118.5C 268.34,119.265 267.34,120.265 266.5,121.5C 267.363,122.726 267.363,124.06 266.5,125.5C 265.833,125.833 265.167,126.167 264.5,126.5C 263.355,125.207 263.689,124.041 265.5,123C 263.521,122.316 261.854,122.816 260.5,124.5C 259.548,122.955 259.215,121.288 259.5,119.5C 261.306,122.338 262.306,122.005 262.5,118.5C 263.492,118.672 264.158,118.338 264.5,117.5 Z"/></g>
<g><path style="opacity:1" fill="#975a33" d="M 282.5,118.5 C 285.112,119.779 287.445,121.445 289.5,123.5C 293.374,129.914 296.707,136.581 299.5,143.5C 298.833,144.5 298.167,145.5 297.5,146.5C 294.981,140.143 292.148,133.81 289,127.5C 287.483,125.76 285.983,124.094 284.5,122.5C 281.806,120.486 278.806,118.986 275.5,118C 277.885,117.444 280.218,117.61 282.5,118.5 Z"/></g>
<g><path style="opacity:0.999" fill="#5229a1" d="M 304.5,143.5 C 302.833,143.5 301.167,143.5 299.5,143.5C 296.707,136.581 293.374,129.914 289.5,123.5C 289.351,122.448 289.517,121.448 290,120.5C 295.355,127.886 300.188,135.552 304.5,143.5 Z"/></g>
<g><path style="opacity:1" fill="#50992f" d="M 293.5,114.5 C 293.5,113.833 293.833,113.5 294.5,113.5C 299.278,115.775 303.945,118.275 308.5,121C 314.103,122.124 319.769,122.79 325.5,123C 326.044,123.717 326.711,124.217 327.5,124.5C 327.5,125.5 327.5,126.5 327.5,127.5C 321.051,126.981 314.718,125.814 308.5,124C 303.331,120.978 298.331,117.811 293.5,114.5 Z"/></g>
<g><path style="opacity:1" fill="#7e5d3c" d="M 212.5,114.5 C 214.5,114.5 216.5,114.5 218.5,114.5C 219.492,114.328 220.158,114.662 220.5,115.5C 217.059,115.301 213.726,115.801 210.5,117C 208.017,117.567 207.35,118.733 208.5,120.5C 205.82,124.537 203.154,128.537 200.5,132.5C 200.5,131.167 200.5,129.833 200.5,128.5C 201.576,125.352 202.909,122.352 204.5,119.5C 204.953,118.542 205.619,117.708 206.5,117C 208.723,116.434 210.723,115.6 212.5,114.5 Z"/></g>
<g><path style="opacity:1" fill="#5d475b" d="M 259.5,119.5 C 259.215,121.288 259.548,122.955 260.5,124.5C 261.854,122.816 263.521,122.316 265.5,123C 263.689,124.041 263.355,125.207 264.5,126.5C 264.672,127.492 264.338,128.158 263.5,128.5C 261.662,127.322 259.995,127.655 258.5,129.5C 257.833,129.5 257.167,129.5 256.5,129.5C 255.448,129.649 254.448,129.483 253.5,129C 256.244,128.197 258.911,127.197 261.5,126C 260.552,125.517 259.552,125.351 258.5,125.5C 258.481,123.94 258.148,122.44 257.5,121C 257.802,119.12 258.469,118.62 259.5,119.5 Z"/></g>
<g><path style="opacity:1" fill="#934438" d="M 277.5,120.5 C 279.754,121.415 281.754,122.748 283.5,124.5C 288.069,131.87 291.069,139.87 292.5,148.5C 291.5,148.5 290.5,148.5 289.5,148.5C 288.173,142.685 286.34,137.019 284,131.5C 282.357,128.039 280.19,125.039 277.5,122.5C 276.494,121.604 276.494,120.938 277.5,120.5 Z"/></g>
<g><path style="opacity:1" fill="#64437b" d="M 202.5,116.5 C 200.558,121.441 197.225,125.108 192.5,127.5C 191.883,127.611 191.383,127.944 191,128.5C 190.51,127.207 190.343,125.873 190.5,124.5C 194.746,122.263 198.746,119.597 202.5,116.5 Z"/></g>
<g><path style="opacity:1" fill="#737046" d="M 230.5,121.5 C 231.167,121.5 231.833,121.5 232.5,121.5C 232.5,123.167 232.5,124.833 232.5,126.5C 231.5,126.5 230.5,126.5 229.5,126.5C 229.515,131.91 230.182,137.243 231.5,142.5C 231.272,144.207 230.938,145.874 230.5,147.5C 230.167,148.5 229.5,149.167 228.5,149.5C 227.034,148.653 226.2,147.32 226,145.5C 225.232,139.627 225.399,133.794 226.5,128C 226.056,126.238 225.556,126.405 225,128.5C 224.667,127.5 224.333,126.5 224,125.5C 223.31,126.738 222.81,126.738 222.5,125.5C 224.315,122.593 226.981,121.259 230.5,121.5 Z"/></g>
<g><path style="opacity:1" fill="#614152" d="M 234.5,112.5 C 234.833,112.5 235.167,112.5 235.5,112.5C 236.437,114.838 237.77,117.005 239.5,119C 238.394,120.882 238.394,122.716 239.5,124.5C 241.012,123.009 242.012,121.176 242.5,119C 243.448,118.517 244.448,118.351 245.5,118.5C 245.5,121.5 245.5,124.5 245.5,127.5C 244.448,127.351 243.448,127.517 242.5,128C 246.449,128.807 246.449,129.307 242.5,129.5C 241.508,129.328 240.842,129.662 240.5,130.5C 239.662,130.842 239.328,131.508 239.5,132.5C 238.728,131.306 237.728,130.306 236.5,129.5C 235.347,128.687 235.347,127.687 236.5,126.5C 235.5,125.167 234.5,123.833 233.5,122.5C 234.325,121.614 235.325,121.281 236.5,121.5C 236.737,120.209 236.404,119.209 235.5,118.5C 233.885,116.672 233.552,114.672 234.5,112.5 Z"/></g>
<g><path style="opacity:1" fill="#643437" d="M 284.5,122.5 C 285.983,124.094 287.483,125.76 289,127.5C 292.148,133.81 294.981,140.143 297.5,146.5C 296.07,147.537 294.403,148.204 292.5,148.5C 291.069,139.87 288.069,131.87 283.5,124.5C 284.338,124.158 284.672,123.492 284.5,122.5 Z"/></g>
<g><path style="opacity:1" fill="#2b8d59" d="M 293.5,114.5 C 298.331,117.811 303.331,120.978 308.5,124C 314.718,125.814 321.051,126.981 327.5,127.5C 327.5,126.5 327.5,125.5 327.5,124.5C 331.621,128.945 330.288,131.279 323.5,131.5C 319.766,131.677 316.099,131.344 312.5,130.5C 303.963,126.903 297.63,121.569 293.5,114.5 Z"/></g>
<g><path style="opacity:1" fill="#366071" d="M 212.5,114.5 C 210.723,115.6 208.723,116.434 206.5,117C 205.619,117.708 204.953,118.542 204.5,119.5C 201.061,123.36 197.395,127.027 193.5,130.5C 192.596,129.791 192.263,128.791 192.5,127.5C 197.225,125.108 200.558,121.441 202.5,116.5C 205.698,115.213 209.031,114.547 212.5,114.5 Z"/></g>
<g><path style="opacity:0.565" fill="#212240" d="M 232.5,126.5 C 232.833,127.167 233.167,127.833 233.5,128.5C 232.844,129.622 232.511,130.955 232.5,132.5C 232.964,135.887 233.631,139.22 234.5,142.5C 233.167,144.167 231.833,145.833 230.5,147.5C 230.938,145.874 231.272,144.207 231.5,142.5C 230.182,137.243 229.515,131.91 229.5,126.5C 230.5,126.5 231.5,126.5 232.5,126.5 Z"/></g>
<g><path style="opacity:0.352" fill="#222340" d="M 266.5,126.5 C 267.5,126.5 268.5,126.5 269.5,126.5C 269.637,131.933 268.97,137.266 267.5,142.5C 267.728,144.207 268.062,145.874 268.5,147.5C 266.883,146.411 266.05,144.744 266,142.5C 265.501,146.152 265.335,149.818 265.5,153.5C 264.717,151.657 264.05,149.657 263.5,147.5C 264.348,145.591 264.682,143.591 264.5,141.5C 266.062,137.343 266.729,133.01 266.5,128.5C 266.5,127.833 266.5,127.167 266.5,126.5 Z"/></g>
<g><path style="opacity:0.971" fill="#7a1e4a" d="M 270.5,124.5 C 270.842,123.662 271.508,123.328 272.5,123.5C 275.706,125.564 277.539,128.564 278,132.5C 278.646,139.081 279.812,145.415 281.5,151.5C 281.44,152.043 281.107,152.376 280.5,152.5C 277.046,151.487 273.713,150.487 270.5,149.5C 274.641,149.424 276.308,147.257 275.5,143C 275.034,137.439 274.201,131.939 273,126.5C 272.292,125.619 271.458,124.953 270.5,124.5 Z"/></g>
<g><path style="opacity:1" fill="#858031" d="M 294.5,112.5 C 294.5,112.833 294.5,113.167 294.5,113.5C 293.833,113.5 293.5,113.833 293.5,114.5C 297.63,121.569 303.963,126.903 312.5,130.5C 313.369,132.717 313.702,135.05 313.5,137.5C 309.399,134.45 305.732,130.95 302.5,127C 301.584,126.626 300.75,126.126 300,125.5C 299.722,126.416 299.222,127.082 298.5,127.5C 296.383,121.714 292.383,118.047 286.5,116.5C 283.946,115.612 281.279,115.279 278.5,115.5C 283.779,114.763 289.112,113.763 294.5,112.5 Z"/></g>
<g><path style="opacity:0.986" fill="#46563f" d="M 185.5,126.5 C 187.652,127.077 187.985,128.244 186.5,130C 182.974,131.337 179.308,131.837 175.5,131.5C 173.063,130.783 170.73,129.783 168.5,128.5C 168.624,127.893 168.957,127.56 169.5,127.5C 169.917,128.124 170.584,128.457 171.5,128.5C 176.111,127.398 180.778,126.731 185.5,126.5 Z"/></g>
<g><path style="opacity:1" fill="#2c2593" d="M 277.5,122.5 C 280.19,125.039 282.357,128.039 284,131.5C 286.34,137.019 288.173,142.685 289.5,148.5C 287.95,149.72 286.284,149.72 284.5,148.5C 283.616,139.848 280.949,131.848 276.5,124.5C 276.328,123.508 276.662,122.842 277.5,122.5 Z"/></g>
<g><path style="opacity:1" fill="#3f4146" d="M 187.5,124.5 C 188.5,124.5 189.5,124.5 190.5,124.5C 190.343,125.873 190.51,127.207 191,128.5C 191.383,127.944 191.883,127.611 192.5,127.5C 192.263,128.791 192.596,129.791 193.5,130.5C 192.631,132.717 192.298,135.05 192.5,137.5C 192.5,138.5 192.5,139.5 192.5,140.5C 189.951,139.491 187.285,138.658 184.5,138C 183.897,136.175 183.23,134.341 182.5,132.5C 179.921,133.635 177.587,133.301 175.5,131.5C 179.308,131.837 182.974,131.337 186.5,130C 187.985,128.244 187.652,127.077 185.5,126.5C 186.167,125.833 186.833,125.167 187.5,124.5 Z"/></g>
<g><path style="opacity:1" fill="#7d313a" d="M 204.5,119.5 C 202.909,122.352 201.576,125.352 200.5,128.5C 198.6,130.619 196.934,132.953 195.5,135.5C 194.5,136.167 193.5,136.833 192.5,137.5C 192.298,135.05 192.631,132.717 193.5,130.5C 197.395,127.027 201.061,123.36 204.5,119.5 Z"/></g>
<g><path style="opacity:1" fill="#349334" d="M 272.5,123.5 C 272.56,122.957 272.893,122.624 273.5,122.5C 274.518,123.193 275.518,123.859 276.5,124.5C 280.949,131.848 283.616,139.848 284.5,148.5C 283.694,149.728 282.694,150.728 281.5,151.5C 279.812,145.415 278.646,139.081 278,132.5C 277.539,128.564 275.706,125.564 272.5,123.5 Z"/></g>
<g><path style="opacity:0.024" fill="#2d3242" d="M 312.5,130.5 C 316.099,131.344 319.766,131.677 323.5,131.5C 321.162,133.04 318.495,133.706 315.5,133.5C 315.598,135.553 314.931,137.22 313.5,138.5C 313.5,138.167 313.5,137.833 313.5,137.5C 313.702,135.05 313.369,132.717 312.5,130.5 Z"/></g>
<g><path style="opacity:1" fill="#565258" d="M 222.5,115.5 C 223.71,115.932 224.71,116.599 225.5,117.5C 221.84,117.159 218.507,117.825 215.5,119.5C 211.887,120.38 210.553,122.38 211.5,125.5C 209.638,128.448 207.971,131.448 206.5,134.5C 206.66,132.801 206.494,131.134 206,129.5C 204.392,133.056 202.559,136.389 200.5,139.5C 200.5,137.167 200.5,134.833 200.5,132.5C 203.154,128.537 205.82,124.537 208.5,120.5C 212.814,117.619 217.48,115.953 222.5,115.5 Z"/></g>
<g><path style="opacity:1" fill="#454161" d="M 220.5,123.5 C 220.131,125.993 220.797,126.66 222.5,125.5C 222.81,126.738 223.31,126.738 224,125.5C 224.333,126.5 224.667,127.5 225,128.5C 225.556,126.405 226.056,126.238 226.5,128C 225.399,133.794 225.232,139.627 226,145.5C 226.2,147.32 227.034,148.653 228.5,149.5C 221.844,152.749 214.844,153.083 207.5,150.5C 207.137,149.817 206.804,149.15 206.5,148.5C 207.492,148.328 208.158,148.662 208.5,149.5C 211.08,151.016 213.08,150.349 214.5,147.5C 216.483,140.246 217.816,132.912 218.5,125.5C 218.5,125.167 218.5,124.833 218.5,124.5C 219.167,124.167 219.833,123.833 220.5,123.5 Z"/></g>
<g><path style="opacity:1" fill="#752433" d="M 221.5,150.5 C 221.5,145.167 221.5,139.833 221.5,134.5C 221.298,132.011 221.798,129.677 223,127.5C 223.167,131.333 223.333,135.167 223.5,139C 223.49,143.229 222.823,147.062 221.5,150.5 Z"/></g>
<g><path style="opacity:1" fill="#975e33" d="M 270.5,124.5 C 271.458,124.953 272.292,125.619 273,126.5C 274.201,131.939 275.034,137.439 275.5,143C 276.308,147.257 274.641,149.424 270.5,149.5C 269.5,149.167 268.833,148.5 268.5,147.5C 268.062,145.874 267.728,144.207 267.5,142.5C 268.97,137.266 269.637,131.933 269.5,126.5C 266.742,125.033 267.075,124.367 270.5,124.5 Z"/></g>
<g><path style="opacity:1" fill="#6a414b" d="M 200.5,128.5 C 200.5,129.833 200.5,131.167 200.5,132.5C 200.5,134.833 200.5,137.167 200.5,139.5C 199.526,143.009 197.193,144.176 193.5,143C 196.17,140.817 196.837,138.317 195.5,135.5C 196.934,132.953 198.6,130.619 200.5,128.5 Z"/></g>
<g><path style="opacity:1" fill="#285435" d="M 217.5,125.5 C 217.833,125.5 218.167,125.5 218.5,125.5C 217.816,132.912 216.483,140.246 214.5,147.5C 213.521,144.375 213.187,141.042 213.5,137.5C 214.267,133.302 215.601,129.302 217.5,125.5 Z"/></g>
<g><path style="opacity:1" fill="#443398" d="M 266.5,125.5 C 266.5,125.833 266.5,126.167 266.5,126.5C 266.5,127.167 266.5,127.833 266.5,128.5C 263.415,133.672 260.081,138.672 256.5,143.5C 259.107,138.62 261.44,133.62 263.5,128.5C 264.338,128.158 264.672,127.492 264.5,126.5C 265.167,126.167 265.833,125.833 266.5,125.5 Z"/></g>
<g><path style="opacity:1" fill="#8f2843" d="M 217.5,125.5 C 215.601,129.302 214.267,133.302 213.5,137.5C 212.778,137.918 212.278,138.584 212,139.5C 211.642,131.81 210.476,131.81 208.5,139.5C 207.833,141.5 207.167,143.5 206.5,145.5C 205.142,146.626 203.808,146.626 202.5,145.5C 204.234,141.963 205.568,138.296 206.5,134.5C 207.971,131.448 209.638,128.448 211.5,125.5C 212.479,123.855 213.812,122.521 215.5,121.5C 217.111,122.32 217.778,123.654 217.5,125.5 Z"/></g>
<g><path style="opacity:1" fill="#42783b" d="M 313.5,137.5 C 313.5,137.833 313.5,138.167 313.5,138.5C 313.167,138.5 312.833,138.5 312.5,138.5C 305.578,137.932 300.912,134.265 298.5,127.5C 299.222,127.082 299.722,126.416 300,125.5C 300.75,126.126 301.584,126.626 302.5,127C 305.732,130.95 309.399,134.45 313.5,137.5 Z"/></g>
<g><path style="opacity:1" fill="#d2d1d9" d="M 326.5,152.5 C 324.5,152.5 323.5,151.5 323.5,149.5C 324.962,145.243 326.962,141.243 329.5,137.5C 331.307,136.201 332.973,136.368 334.5,138C 333.5,139.667 332.5,141.333 331.5,143C 336.833,146 342.167,149 347.5,152C 346.54,153.419 345.707,154.919 345,156.5C 339.505,153.753 334.171,150.753 329,147.5C 328.243,149.315 327.41,150.981 326.5,152.5 Z"/></g>
<g><path style="opacity:1" fill="#299544" d="M 233.5,128.5 C 235.012,132.201 237.012,135.534 239.5,138.5C 239.427,140.027 240.094,141.027 241.5,141.5C 243.739,145.084 246.406,148.417 249.5,151.5C 250.857,149.814 252.19,148.148 253.5,146.5C 254.833,145.833 255.833,144.833 256.5,143.5C 260.081,138.672 263.415,133.672 266.5,128.5C 266.729,133.01 266.062,137.343 264.5,141.5C 263.088,143.604 262.088,145.937 261.5,148.5C 261.5,149.5 261.5,150.5 261.5,151.5C 260.662,151.842 260.328,152.508 260.5,153.5C 259.655,154.671 258.989,156.005 258.5,157.5C 257.5,157.833 256.833,158.5 256.5,159.5C 255.957,159.44 255.624,159.107 255.5,158.5C 256.752,156.999 257.752,155.332 258.5,153.5C 258.376,152.893 258.043,152.56 257.5,152.5C 257.5,151.5 257.5,150.5 257.5,149.5C 253.062,148.425 251.062,150.092 251.5,154.5C 250.5,154.5 249.5,154.5 248.5,154.5C 248.047,152.435 247.047,150.768 245.5,149.5C 244.167,149.5 242.833,149.5 241.5,149.5C 241.5,150.833 241.5,152.167 241.5,153.5C 240.825,150.822 239.491,148.488 237.5,146.5C 236.974,144.77 235.974,143.436 234.5,142.5C 233.631,139.22 232.964,135.887 232.5,132.5C 232.511,130.955 232.844,129.622 233.5,128.5 Z"/></g>
<g><path style="opacity:1" fill="#d6d6dc" d="M 167.5,138.5 C 168.822,138.33 169.989,138.663 171,139.5C 179.572,153.529 175.739,160.695 159.5,161C 155.608,157.932 152.608,154.099 150.5,149.5C 156.025,145.574 161.691,141.907 167.5,138.5 Z M 167.5,144.5 C 171.935,149.164 171.268,152.997 165.5,156C 161.127,156.986 158.127,155.319 156.5,151C 160.56,149.311 164.227,147.144 167.5,144.5 Z"/></g>
<g><path style="opacity:0.999" fill="#515940" d="M 221.5,134.5 C 221.5,139.833 221.5,145.167 221.5,150.5C 220.206,148.952 219.539,146.952 219.5,144.5C 219.398,140.883 220.065,137.55 221.5,134.5 Z"/></g>
<g><path style="opacity:1" fill="#8c4135" d="M 263.5,128.5 C 261.44,133.62 259.107,138.62 256.5,143.5C 255.833,144.833 254.833,145.833 253.5,146.5C 251.545,147.323 249.545,147.49 247.5,147C 245.811,144.747 243.811,142.914 241.5,141.5C 240.094,141.027 239.427,140.027 239.5,138.5C 238.302,135.574 237.302,132.574 236.5,129.5C 237.728,130.306 238.728,131.306 239.5,132.5C 239.877,134.258 240.544,135.925 241.5,137.5C 246.833,138.833 252.167,138.833 257.5,137.5C 258.95,136.15 259.617,134.484 259.5,132.5C 260.885,131.053 260.552,130.053 258.5,129.5C 259.995,127.655 261.662,127.322 263.5,128.5 Z"/></g>
<g><path style="opacity:1" fill="#6d2147" d="M 239.5,132.5 C 246.13,139.046 252.797,139.046 259.5,132.5C 259.617,134.484 258.95,136.15 257.5,137.5C 252.167,138.833 246.833,138.833 241.5,137.5C 240.544,135.925 239.877,134.258 239.5,132.5 Z"/></g>
<g><path style="opacity:1" fill="#9b151f" d="M 258.5,129.5 C 260.552,130.053 260.885,131.053 259.5,132.5C 252.797,139.046 246.13,139.046 239.5,132.5C 239.328,131.508 239.662,130.842 240.5,130.5C 246.876,134.78 252.876,134.447 258.5,129.5 Z"/></g>
<g><path style="opacity:1" fill="#408837" d="M 240.5,130.5 C 240.842,129.662 241.508,129.328 242.5,129.5C 244.462,131.017 246.795,131.684 249.5,131.5C 252.205,131.684 254.538,131.017 256.5,129.5C 257.167,129.5 257.833,129.5 258.5,129.5C 252.876,134.447 246.876,134.78 240.5,130.5 Z"/></g>
<g><path style="opacity:0.171" fill="#3a2b54" d="M 206.5,134.5 C 205.568,138.296 204.234,141.963 202.5,145.5C 203.808,146.626 205.142,146.626 206.5,145.5C 206.5,146.5 206.5,147.5 206.5,148.5C 201.664,147.641 196.997,146.308 192.5,144.5C 192.5,143.167 192.5,141.833 192.5,140.5C 192.5,139.5 192.5,138.5 192.5,137.5C 193.5,136.833 194.5,136.167 195.5,135.5C 196.837,138.317 196.17,140.817 193.5,143C 197.193,144.176 199.526,143.009 200.5,139.5C 202.559,136.389 204.392,133.056 206,129.5C 206.494,131.134 206.66,132.801 206.5,134.5 Z"/></g>
<g><path style="opacity:0.047" fill="#26213f" d="M 299.5,143.5 C 301.167,143.5 302.833,143.5 304.5,143.5C 302.351,144.736 300.018,145.736 297.5,146.5C 298.167,145.5 298.833,144.5 299.5,143.5 Z"/></g>
<g><path style="opacity:1" fill="#3f7637" d="M 208.5,139.5 C 209.833,142.833 209.833,146.167 208.5,149.5C 208.158,148.662 207.492,148.328 206.5,148.5C 206.5,147.5 206.5,146.5 206.5,145.5C 207.167,143.5 207.833,141.5 208.5,139.5 Z"/></g>
<g><path style="opacity:1" fill="#6d5f7a" d="M 241.5,141.5 C 243.811,142.914 245.811,144.747 247.5,147C 249.545,147.49 251.545,147.323 253.5,146.5C 252.19,148.148 250.857,149.814 249.5,151.5C 246.406,148.417 243.739,145.084 241.5,141.5 Z"/></g>
<g><path style="opacity:1" fill="#5f483a" d="M 213.5,137.5 C 213.187,141.042 213.521,144.375 214.5,147.5C 213.08,150.349 211.08,151.016 208.5,149.5C 209.833,146.167 209.833,142.833 208.5,139.5C 210.476,131.81 211.642,131.81 212,139.5C 212.278,138.584 212.778,137.918 213.5,137.5 Z"/></g>
<g><path style="opacity:1" fill="#725821" d="M 261.5,148.5 C 262.735,151.33 263.735,154.33 264.5,157.5C 263.833,156.833 263.167,156.167 262.5,155.5C 261.566,154.432 261.232,153.099 261.5,151.5C 261.5,150.5 261.5,149.5 261.5,148.5 Z"/></g>
<g><path style="opacity:0.155" fill="#282549" d="M 284.5,148.5 C 286.284,149.72 287.95,149.72 289.5,148.5C 290.5,148.5 291.5,148.5 292.5,148.5C 291.942,149.79 290.942,150.623 289.5,151C 286.729,150.653 284.062,150.82 281.5,151.5C 282.694,150.728 283.694,149.728 284.5,148.5 Z"/></g>
<g><path style="opacity:1" fill="#565367" d="M 257.5,152.5 C 257.047,153.458 256.381,154.292 255.5,155C 253.22,155.233 251.22,156.066 249.5,157.5C 247.596,156.743 247.263,155.743 248.5,154.5C 249.5,154.5 250.5,154.5 251.5,154.5C 251.062,150.092 253.062,148.425 257.5,149.5C 257.5,150.5 257.5,151.5 257.5,152.5 Z"/></g>
<g><path style="opacity:0.094" fill="#363553" d="M 323.5,149.5 C 323.5,151.5 324.5,152.5 326.5,152.5C 326.5,153.5 326.5,154.5 326.5,155.5C 325.078,154.075 323.411,153.075 321.5,152.5C 321.932,151.29 322.599,150.29 323.5,149.5 Z"/></g>
<g><path style="opacity:0.996" fill="#4c8538" d="M 264.5,141.5 C 264.682,143.591 264.348,145.591 263.5,147.5C 264.05,149.657 264.717,151.657 265.5,153.5C 267.58,156.642 269.914,159.642 272.5,162.5C 272.685,164.196 273.519,165.529 275,166.5C 275.798,168.259 275.631,169.926 274.5,171.5C 272.118,169.785 270.118,167.785 268.5,165.5C 266.659,163.151 265.326,160.485 264.5,157.5C 263.735,154.33 262.735,151.33 261.5,148.5C 262.088,145.937 263.088,143.604 264.5,141.5 Z"/></g>
<g><path style="opacity:1" fill="#708940" d="M 237.5,146.5 C 239.491,148.488 240.825,150.822 241.5,153.5C 242.482,154.141 243.482,154.807 244.5,155.5C 245.466,153.604 245.799,151.604 245.5,149.5C 247.047,150.768 248.047,152.435 248.5,154.5C 247.263,155.743 247.596,156.743 249.5,157.5C 251.22,156.066 253.22,155.233 255.5,155C 256.381,154.292 257.047,153.458 257.5,152.5C 258.043,152.56 258.376,152.893 258.5,153.5C 257.752,155.332 256.752,156.999 255.5,158.5C 255.624,159.107 255.957,159.44 256.5,159.5C 256.5,160.167 256.167,160.5 255.5,160.5C 254.604,161.506 253.938,161.506 253.5,160.5C 251.03,159.307 248.364,158.807 245.5,159C 246.883,160.271 247.883,161.771 248.5,163.5C 247.508,163.672 246.842,163.338 246.5,162.5C 246.158,161.662 245.492,161.328 244.5,161.5C 241.756,159.016 239.756,156.016 238.5,152.5C 238.737,151.209 238.404,150.209 237.5,149.5C 237.5,148.5 237.5,147.5 237.5,146.5 Z"/></g>
<g><path style="opacity:1" fill="#5c6a68" d="M 245.5,149.5 C 245.799,151.604 245.466,153.604 244.5,155.5C 243.482,154.807 242.482,154.141 241.5,153.5C 241.5,152.167 241.5,150.833 241.5,149.5C 242.833,149.5 244.167,149.5 245.5,149.5 Z"/></g>
<g><path style="opacity:0.743" fill="#364f82" d="M 261.5,151.5 C 261.232,153.099 261.566,154.432 262.5,155.5C 263.793,160.753 266.126,165.419 269.5,169.5C 269.833,171.833 271.167,173.167 273.5,173.5C 272.055,175.063 270.389,176.396 268.5,177.5C 263.243,170.396 260.576,162.396 260.5,153.5C 260.328,152.508 260.662,151.842 261.5,151.5 Z"/></g>
<g><path style="opacity:1" fill="#2a4091" d="M 234.5,142.5 C 235.974,143.436 236.974,144.77 237.5,146.5C 237.5,147.5 237.5,148.5 237.5,149.5C 233.836,157.496 230.169,165.496 226.5,173.5C 226.167,173.5 225.833,173.5 225.5,173.5C 224.504,173.586 223.671,173.252 223,172.5C 222.333,170.5 222.333,168.5 223,166.5C 227.087,163.084 230.42,159.084 233,154.5C 233.595,153.101 233.428,151.768 232.5,150.5C 233.751,149.369 234.751,148.036 235.5,146.5C 235.154,145.151 234.821,143.817 234.5,142.5 Z"/></g>
<g><path style="opacity:1" fill="#972b20" d="M 262.5,155.5 C 263.167,156.167 263.833,156.833 264.5,157.5C 265.326,160.485 266.659,163.151 268.5,165.5C 268.833,166.833 269.167,168.167 269.5,169.5C 266.126,165.419 263.793,160.753 262.5,155.5 Z"/></g>
<g><path style="opacity:1" fill="#6f157d" d="M 237.5,149.5 C 238.404,150.209 238.737,151.209 238.5,152.5C 236.489,158.203 234.156,163.87 231.5,169.5C 229.833,170.5 228.5,171.833 227.5,173.5C 227.167,173.5 226.833,173.5 226.5,173.5C 230.169,165.496 233.836,157.496 237.5,149.5 Z"/></g>
<g><path style="opacity:1" fill="#81794c" d="M 253.5,182.5 C 251.547,176.926 250.88,170.926 251.5,164.5C 251.976,162.934 252.643,162.6 253.5,163.5C 252.47,169.991 252.47,176.324 253.5,182.5 Z"/></g>
<g><path style="opacity:0.96" fill="#6f117c" d="M 248.5,164.5 C 249.458,170.744 249.791,177.077 249.5,183.5C 248.883,183.389 248.383,183.056 248,182.5C 247.181,176.319 247.347,170.319 248.5,164.5 Z"/></g>
<g><path style="opacity:0.97" fill="#538677" d="M 253.5,160.5 C 251.194,161.375 250.527,162.708 251.5,164.5C 250.88,170.926 251.547,176.926 253.5,182.5C 252.791,183.404 251.791,183.737 250.5,183.5C 250.167,183.5 249.833,183.5 249.5,183.5C 249.791,177.077 249.458,170.744 248.5,164.5C 248.5,164.167 248.5,163.833 248.5,163.5C 247.883,161.771 246.883,160.271 245.5,159C 248.364,158.807 251.03,159.307 253.5,160.5 Z"/></g>
<g><path style="opacity:1" fill="#d3d3da" d="M 205.5,179.5 C 199.206,183.292 193.039,187.292 187,191.5C 184.966,190.738 183.466,189.405 182.5,187.5C 184.207,181.544 186.207,175.71 188.5,170C 186.167,167.667 183.833,165.333 181.5,163C 179.799,162.655 178.466,163.322 177.5,165C 179.684,167.016 181.684,169.183 183.5,171.5C 182.24,172.382 181.074,173.382 180,174.5C 177.986,169.017 174.82,167.85 170.5,171C 173.017,173.349 175.35,175.849 177.5,178.5C 176.833,179.833 175.833,180.833 174.5,181.5C 170.943,178.064 167.609,174.397 164.5,170.5C 169.792,165.509 175.125,160.509 180.5,155.5C 184.485,159.985 188.651,164.318 193,168.5C 192.479,173.081 191.312,177.581 189.5,182C 189.833,182.5 190.167,183 190.5,183.5C 194.206,180.624 198.039,177.957 202,175.5C 204.074,176.072 205.24,177.405 205.5,179.5 Z"/></g>
<g><path style="opacity:1" fill="#937034" d="M 244.5,161.5 C 245.492,161.328 246.158,161.662 246.5,162.5C 246.843,168.017 246.343,173.684 245,179.5C 244.29,180.973 243.124,181.64 241.5,181.5C 242.925,174.893 243.925,168.226 244.5,161.5 Z"/></g>
<g><path style="opacity:1" fill="#658943" d="M 260.5,153.5 C 260.576,162.396 263.243,170.396 268.5,177.5C 266.856,177.714 265.356,177.38 264,176.5C 262.042,170.134 260.209,163.801 258.5,157.5C 258.989,156.005 259.655,154.671 260.5,153.5 Z"/></g>
<g><path style="opacity:0.999" fill="#d0d0d7" d="M 321.5,152.5 C 323.411,153.075 325.078,154.075 326.5,155.5C 330.959,158.787 335.292,162.287 339.5,166C 338.5,167 337.5,168 336.5,169C 332.507,169.17 328.507,169.004 324.5,168.5C 324.5,167.833 324.167,167.5 323.5,167.5C 322.209,167.263 321.209,167.596 320.5,168.5C 320.973,169.906 321.973,170.573 323.5,170.5C 325.355,172.033 327.188,173.7 329,175.5C 329.722,177.661 329.055,179.328 327,180.5C 322.293,176.288 317.46,172.288 312.5,168.5C 310.546,171.284 308.046,173.617 305,175.5C 304.388,177.237 305.054,178.237 307,178.5C 309.024,176.984 311.191,175.651 313.5,174.5C 314.888,175.591 315.388,176.924 315,178.5C 312.692,179.641 310.859,181.308 309.5,183.5C 310.167,184.833 311.167,185.833 312.5,186.5C 314.759,184.455 317.259,182.789 320,181.5C 321.5,181.667 322.333,182.5 322.5,184C 318.791,187.278 314.957,190.444 311,193.5C 305.89,188.1 301.39,182.267 297.5,176C 303.134,171.175 308.801,166.341 314.5,161.5C 319.096,162.8 323.762,163.3 328.5,163C 325.354,160.688 322.354,158.188 319.5,155.5C 319.942,154.261 320.609,153.261 321.5,152.5 Z M 312.5,168.5 C 310.972,168.483 310.472,167.816 311,166.5C 311.717,167.044 312.217,167.711 312.5,168.5 Z"/></g>
<g><path style="opacity:0.011" fill="#333251" d="M 323.5,167.5 C 324.167,167.5 324.5,167.833 324.5,168.5C 324.167,169.167 323.833,169.833 323.5,170.5C 321.973,170.573 320.973,169.906 320.5,168.5C 321.791,168.737 322.791,168.404 323.5,167.5 Z"/></g>
<g><path style="opacity:1" fill="#65355a" d="M 238.5,152.5 C 239.756,156.016 241.756,159.016 244.5,161.5C 243.925,168.226 242.925,174.893 241.5,181.5C 243.124,181.64 244.29,180.973 245,179.5C 246.343,173.684 246.843,168.017 246.5,162.5C 246.842,163.338 247.508,163.672 248.5,163.5C 248.5,163.833 248.5,164.167 248.5,164.5C 247.347,170.319 247.181,176.319 248,182.5C 248.383,183.056 248.883,183.389 249.5,183.5C 249.833,183.5 250.167,183.5 250.5,183.5C 248.118,183.402 245.618,183.402 243,183.5C 240.562,182.432 238.395,181.098 236.5,179.5C 238.045,178.77 238.878,177.437 239,175.5C 239.667,169.833 239.667,164.167 239,158.5C 238.209,159.745 237.709,161.078 237.5,162.5C 237.167,163.833 236.833,165.167 236.5,166.5C 232.198,170.341 231.864,174.341 235.5,178.5C 231.269,178.596 227.935,176.93 225.5,173.5C 225.833,173.5 226.167,173.5 226.5,173.5C 226.833,173.5 227.167,173.5 227.5,173.5C 227.811,174.478 228.478,175.145 229.5,175.5C 230.477,173.589 231.143,171.589 231.5,169.5C 234.156,163.87 236.489,158.203 238.5,152.5 Z"/></g>
<g><path style="opacity:1" fill="#5d4f2f" d="M 272.5,162.5 C 276.252,164.794 277.419,168.128 276,172.5C 275.329,173.252 274.496,173.586 273.5,173.5C 271.167,173.167 269.833,171.833 269.5,169.5C 269.167,168.167 268.833,166.833 268.5,165.5C 270.118,167.785 272.118,169.785 274.5,171.5C 275.631,169.926 275.798,168.259 275,166.5C 273.519,165.529 272.685,164.196 272.5,162.5 Z"/></g>
<g><path style="opacity:1" fill="#7a772d" d="M 237.5,162.5 C 238.643,165.976 238.81,169.642 238,173.5C 237.581,174.672 236.915,175.672 236,176.5C 235.341,173.112 235.508,169.779 236.5,166.5C 236.833,165.167 237.167,163.833 237.5,162.5 Z"/></g>
<g><path style="opacity:1" fill="#7a5460" d="M 253.5,160.5 C 253.938,161.506 254.604,161.506 255.5,160.5C 256.925,167.967 258.591,175.301 260.5,182.5C 258.167,182.5 255.833,182.5 253.5,182.5C 252.47,176.324 252.47,169.991 253.5,163.5C 252.643,162.6 251.976,162.934 251.5,164.5C 250.527,162.708 251.194,161.375 253.5,160.5 Z"/></g>
<g><path style="opacity:1" fill="#652e69" d="M 258.5,157.5 C 260.209,163.801 262.042,170.134 264,176.5C 265.356,177.38 266.856,177.714 268.5,177.5C 267.048,178.302 265.382,178.802 263.5,179C 262.837,180.518 261.837,181.685 260.5,182.5C 258.591,175.301 256.925,167.967 255.5,160.5C 256.167,160.5 256.5,160.167 256.5,159.5C 256.833,158.5 257.5,157.833 258.5,157.5 Z"/></g>
<g><path style="opacity:1" fill="#928441" d="M 231.5,169.5 C 231.143,171.589 230.477,173.589 229.5,175.5C 228.478,175.145 227.811,174.478 227.5,173.5C 228.5,171.833 229.833,170.5 231.5,169.5 Z"/></g>
<g><path style="opacity:1" fill="#785b4b" d="M 236.5,179.5 C 235.833,179.5 235.5,179.167 235.5,178.5C 231.864,174.341 232.198,170.341 236.5,166.5C 235.508,169.779 235.341,173.112 236,176.5C 236.915,175.672 237.581,174.672 238,173.5C 238.81,169.642 238.643,165.976 237.5,162.5C 237.709,161.078 238.209,159.745 239,158.5C 239.667,164.167 239.667,169.833 239,175.5C 238.878,177.437 238.045,178.77 236.5,179.5 Z"/></g>
<g><path style="opacity:0.999" fill="#d7d7dd" d="M 294.5,191.5 C 294.5,195.167 294.5,198.833 294.5,202.5C 291.773,203.521 289.773,202.521 288.5,199.5C 288.167,198.5 287.5,197.833 286.5,197.5C 286.167,197.5 285.833,197.5 285.5,197.5C 285.5,196.833 285.167,196.5 284.5,196.5C 284.167,193.833 283.833,193.833 283.5,196.5C 284.508,198.544 285.508,200.544 286.5,202.5C 287.791,203.542 287.791,204.708 286.5,206C 285.056,206.781 283.723,206.614 282.5,205.5C 281.154,202.145 279.82,198.812 278.5,195.5C 278.34,193.847 277.674,192.514 276.5,191.5C 276.5,191.167 276.5,190.833 276.5,190.5C 275.766,189.292 275.433,187.959 275.5,186.5C 277.201,184.577 279.201,184.243 281.5,185.5C 284.15,188.651 286.984,191.651 290,194.5C 290.746,189.958 290.579,185.458 289.5,181C 290.786,179.351 292.453,178.185 294.5,177.5C 298.328,183.822 301.661,190.489 304.5,197.5C 303.131,199.124 301.464,199.624 299.5,199C 298.128,195.757 296.628,192.591 295,189.5C 294.536,190.094 294.369,190.761 294.5,191.5 Z"/></g>
<g><path style="opacity:0.999" fill="#d2d2d9" d="M 205.5,179.5 C 206.15,179.196 206.817,178.863 207.5,178.5C 211.381,180.607 215.381,182.441 219.5,184C 219.966,185.299 219.966,186.799 219.5,188.5C 216.157,187.381 212.823,186.048 209.5,184.5C 208.738,185.628 208.071,186.795 207.5,188C 210.167,189.333 212.833,190.667 215.5,192C 214.845,193.487 213.845,194.653 212.5,195.5C 210.5,194.5 208.5,193.5 206.5,192.5C 205.155,193.347 204.155,194.513 203.5,196C 206.5,197.833 209.5,199.667 212.5,201.5C 212.135,202.902 211.301,203.902 210,204.5C 205.41,202.792 201.243,200.458 197.5,197.5C 200.179,191.478 202.845,185.478 205.5,179.5 Z"/></g>
<g><path style="opacity:1" fill="#d2d1d9" d="M 221.5,184.5 C 223.042,185.301 224.708,185.634 226.5,185.5C 225.484,190.899 224.15,196.232 222.5,201.5C 222.608,202.442 222.941,203.275 223.5,204C 226.272,204.526 228.938,205.359 231.5,206.5C 230.902,207.795 230.402,209.128 230,210.5C 225.667,209.167 221.333,207.833 217,206.5C 217.852,199.083 219.352,191.75 221.5,184.5 Z"/></g>
<g><path style="opacity:0.024" fill="#2e2d4d" d="M 275.5,186.5 C 275.433,187.959 275.766,189.292 276.5,190.5C 275.167,190.833 275.167,191.167 276.5,191.5C 277.674,192.514 278.34,193.847 278.5,195.5C 277.21,194.942 276.377,193.942 276,192.5C 275.722,193.416 275.222,194.082 274.5,194.5C 274.385,192.053 273.385,190.053 271.5,188.5C 273.062,188.267 274.395,187.6 275.5,186.5 Z"/></g>
<g><path style="opacity:0.999" fill="#d4d4db" d="M 271.5,188.5 C 273.385,190.053 274.385,192.053 274.5,194.5C 273.887,200.266 270.554,203.1 264.5,203C 265.167,205.333 265.833,207.667 266.5,210C 264.702,211.505 262.868,211.672 261,210.5C 260.069,203.672 258.569,197.006 256.5,190.5C 261.324,187.998 266.324,187.331 271.5,188.5 Z M 263.5,192.5 C 268.386,191.405 270.052,193.072 268.5,197.5C 264.071,199.043 262.404,197.376 263.5,192.5 Z"/></g>
<g><path style="opacity:0.999" fill="#dadae0" d="M 240.5,189.5 C 251.969,188.135 256.802,193.135 255,204.5C 252.294,211.386 247.461,213.553 240.5,211C 234.891,207.723 233.058,202.89 235,196.5C 235.967,193.379 237.8,191.046 240.5,189.5 Z M 242.5,193.5 C 248.74,193.294 251.24,196.294 250,202.5C 249.252,206.914 246.752,208.414 242.5,207C 238.686,202.539 238.686,198.039 242.5,193.5 Z"/></g>
<g><path style="opacity:0.025" fill="#333251" d="M 283.5,196.5 C 283.833,196.5 284.167,196.5 284.5,196.5C 285.167,196.5 285.5,196.833 285.5,197.5C 285.833,198.833 286.167,198.833 286.5,197.5C 287.5,197.833 288.167,198.5 288.5,199.5C 286.952,199.821 286.285,200.821 286.5,202.5C 285.508,200.544 284.508,198.544 283.5,196.5 Z"/></g>
<g><path style="opacity:0.624" fill="#7a798d" d="M 294.5,191.5 C 295.339,192.641 296.006,193.974 296.5,195.5C 295.933,197.982 295.266,200.316 294.5,202.5C 294.5,198.833 294.5,195.167 294.5,191.5 Z"/></g>
</svg>
